# xmcd
# 
# Track frame offsets:
#     183
#     17338
#     39668
#     59298
#     76513
#     94865
#     110720
#     127833
#     147755
#     163933
#     184133
# 
# Disc length: 2878
# 
# Revision: 5
# Processed by: cddbd v1.5.2PL0 Copyright (c) Steve Scherf et al.
# Submitted via: fre:ac v1.0.17
# 
DISCID=860b3c0b
DTITLE=Roger Chapman - Chappo
DYEAR=1986
DGENRE=Rock
TTITLE0=Midnite child
TTITLE1=Moth to a flame
TTITLE2=Keep forgettin'
TTITLE3=Shape of thing
TTITLE4=Face of stone
TTITLE5=Let's spend the night together
TTITLE6=Who pulled the nite down
TTITLE7=Always gotta pay in the end
TTITLE8=Hang on to a dream
TTITLE9=Pills
TTITLE10=Don't give up
EXTD=YEAR: 1986
EXTT0=
EXTT1=
EXTT2=
EXTT3=
EXTT4=
EXTT5=
EXTT6=
EXTT7=
EXTT8=
EXTT9=
EXTT10=
PLAYORDER=
